<?xml version="1.0" encoding="UTF-8"?>
<svg version="1.1" xmlns="http://www.w3.org/2000/svg" width="1024" height="1024">
<path d="M0 0 C4.17847675 0.58645288 4.89077173 1.37680225 7.5625 4.5 C8.89941406 6.73217773 8.89941406 6.73217773 10.078125 9.18359375 C10.52075684 10.10027832 10.96338867 11.01696289 11.41943359 11.96142578 C12.10900146 13.43458252 12.10900146 13.43458252 12.8125 14.9375 C13.53493896 16.47253174 13.53493896 16.47253174 14.27197266 18.03857422 C29.27304487 50.36735456 36.66477293 84.55592856 36.85766602 120.2175293 C36.86920878 121.69581659 36.88969713 123.17406146 36.91918945 124.65209961 C37.11779 134.6742156 36.22414412 143.02182589 32.5625 152.5 C32.06036987 153.83043335 32.06036987 153.83043335 31.5480957 155.18774414 C30.58639848 157.66119034 29.58191239 160.11235073 28.5625 162.5625 C22.94896965 176.41299531 19.27328399 189.81295489 16.5625 204.5 C18.21520735 201.26936441 19.60138926 197.97221446 20.97216797 194.61230469 C25.44829721 183.78028458 30.4959829 173.246677 35.69949341 162.74920654 C36.5113177 161.11034889 37.31976913 159.46981519 38.1244812 157.82745361 C56.92009827 119.54213698 84.69652775 88.95841079 125.8972168 74.86010742 C135.25628683 71.76942898 143.65357376 69.06064037 153.5625 71.125 C155.5625 72.5 155.5625 72.5 157.25 75.0625 C157.87808395 81.97142343 152.01839333 86.93223214 147.91235352 92.06030273 C147.46690186 92.61790283 147.0214502 93.17550293 146.5625 93.75 C146.099646 94.32886963 145.63679199 94.90773926 145.15991211 95.50415039 C134.82512763 108.62290082 125.79950074 122.97981509 117.5625 137.5 C117.08490234 138.33772949 116.60730469 139.17545898 116.11523438 140.03857422 C108.90021321 152.78166732 102.42740627 165.64157491 96.9597168 179.23925781 C93.68533382 187.05136372 89.47997259 192.49328163 83.5625 198.5 C82.34335 199.88639584 81.13298689 201.28064847 79.9375 202.6875 C77.78539093 205.17032307 75.56670504 207.4853897 73.1875 209.75 C64.76512541 218.07816459 58.50670764 228.33345144 52.5625 238.5 C52.19092773 239.1295459 51.81935547 239.7590918 51.43652344 240.40771484 C43.15741309 254.49471494 37.16033686 268.83480361 32.5625 284.5 C32.87888428 283.90687012 33.19526855 283.31374023 33.52124023 282.70263672 C41.98438894 266.88455411 50.81481844 251.8927286 61.5625 237.5 C62.24828125 236.55769531 62.9340625 235.61539063 63.640625 234.64453125 C72.85240719 222.10259039 82.73910087 210.64127395 94.5625 200.5 C95.77486328 199.45779297 95.77486328 199.45779297 97.01171875 198.39453125 C114.8341111 183.63582287 135.98510234 171.94848871 158.5625 166.5 C160.12097656 166.11521484 160.12097656 166.11521484 161.7109375 165.72265625 C174.4120839 162.65344827 186.94790723 159.96091493 200.0625 159.9375 C200.95727051 159.93516357 201.85204102 159.93282715 202.77392578 159.93041992 C207.49001078 160.05394737 210.73769481 160.4626547 214.5625 163.5 C216.29568664 165.86343632 216.57330944 167.06762249 216.5 170 C214.63735192 174.96706155 210.2258364 176.6914107 205.75 179 C193.84779774 185.35320256 183.35970994 194.31111356 173.5625 203.5 C172.69109375 204.28117188 171.8196875 205.06234375 170.921875 205.8671875 C164.51496684 211.62640276 158.3518837 217.6061467 152.25 223.6875 C151.4971875 224.43572021 150.744375 225.18394043 149.96875 225.95483398 C145.85610374 230.07885371 141.91550906 234.29361485 138.11499023 238.70678711 C136.05229646 241.08931357 133.899941 243.38373017 131.75 245.6875 C128.6334957 249.08519265 125.73864309 252.52995863 123.00927734 256.24633789 C114.84545029 267.35627063 104.52145762 276.15180279 93.76953125 284.6953125 C91.90710759 286.21821468 90.24438052 287.78706845 88.5625 289.5 C89.19003174 289.19819824 89.81756348 288.89639648 90.46411133 288.58544922 C103.88109066 282.17453077 117.12618282 276.19293564 131.5625 272.5 C132.23168457 272.32500977 132.90086914 272.15001953 133.59033203 271.96972656 C143.1051511 269.59513618 152.52978361 269.23427528 162.3125 269.1875 C163.98119141 269.17904053 163.98119141 269.17904053 165.68359375 269.17041016 C188.43144913 269.36894913 188.43144913 269.36894913 194.5625 275.5 C194.9375 278.25 194.9375 278.25 194.5625 281.5 C191.16388045 285.58762909 188.26780399 287.31700133 183.21484375 288.82421875 C181.36173584 289.39934204 181.36173584 289.39934204 179.47119141 289.98608398 C178.49874481 290.27912918 178.49874481 290.27912918 177.50665283 290.57809448 C157.61662936 296.61854645 140.24600176 305.07119898 123.5625 317.5 C123.00014648 317.91749512 122.43779297 318.33499023 121.85839844 318.76513672 C114.56783779 324.21252954 107.48140771 329.9267475 100.40991211 335.65405273 C95.77517002 339.39366499 95.77517002 339.39366499 93.5625 340.5 C93.5625 341.16 93.5625 341.82 93.5625 342.5 C95.60347828 343.97801111 95.60347828 343.97801111 98.25 345.5 C114.52470564 355.61445901 128.89167114 368.30427992 140.5625 383.5 C141.31402344 384.40105469 142.06554687 385.30210937 142.83984375 386.23046875 C188.45457824 442.1953861 200.64603193 520.19200724 193.921875 590.11523438 C188.99722919 636.49790389 175.47913552 688.00447704 143.5625 723.5 C142.5415625 724.71623047 142.5415625 724.71623047 141.5 725.95703125 C113.5993674 758.52486526 67.79230641 778.34848548 25.57788086 782.30371094 C18.9138119 782.7375148 12.23823998 782.74409342 5.5625 782.75 C4.77070343 782.75100708 3.97890686 782.75201416 3.16311646 782.75305176 C-48.26243355 782.70907232 -96.43959599 769.25897027 -134.4375 733.5 C-135.16195312 732.85160156 -135.88640625 732.20320312 -136.6328125 731.53515625 C-175.04909866 695.66618655 -188.51217746 632.65951073 -192.4375 582.5 C-192.60378906 580.52773437 -192.60378906 580.52773437 -192.7734375 578.515625 C-197.77656874 512.91276936 -185.27123044 442.68679175 -144.4375 389.5 C-143.78394531 388.63503906 -143.13039063 387.77007812 -142.45703125 386.87890625 C-130.93860961 372.0355794 -117.80253707 359.18648685 -102.2746582 348.60913086 C-98.6648655 346.14216827 -95.39651931 343.76032937 -92.4375 340.5 C-94.9563747 338.43473621 -97.47773101 336.37274508 -100.00390625 334.31640625 C-102.3653607 332.38903766 -104.70158415 330.43509706 -107.02734375 328.46484375 C-127.93105453 310.89783748 -151.88271253 295.31115429 -178.63378906 288.81689453 C-184.32925319 287.39157705 -187.87868706 286.30252441 -191.4375 281.5 C-192 278.375 -192 278.375 -191.4375 275.5 C-182.19382336 266.73481957 -162.92655578 268.91941705 -151.3359375 269.15234375 C-142.36574551 269.49452088 -134.03730917 270.99655151 -125.4375 273.5 C-124.70982422 273.70367187 -123.98214844 273.90734375 -123.23242188 274.1171875 C-110.31995484 277.80321333 -98.41569282 283.49843744 -86.4375 289.5 C-90.17462221 285.6575078 -94.09629157 282.14727328 -98.1875 278.6875 C-99.43253289 277.62267781 -100.67732452 276.55757348 -101.921875 275.4921875 C-103.9833835 273.73228233 -106.05422787 271.98843671 -108.140625 270.2578125 C-112.54458696 266.52792635 -115.61832539 262.94687968 -118.6484375 258.0546875 C-122.24914888 252.91306033 -126.7722737 248.50433681 -131.07763672 243.95263672 C-132.74335955 242.17327391 -134.3478293 240.34745514 -135.9375 238.5 C-152.43954432 219.51080545 -169.85961162 202.05170514 -190.4375 187.5 C-191.23921631 186.92668945 -191.23921631 186.92668945 -192.05712891 186.34179688 C-199.7725347 180.76716603 -199.7725347 180.76716603 -208.0625 176.125 C-210.98945645 174.71572467 -212.48296395 173.96700587 -214.4375 171.5 C-214.31257069 168.00197934 -214.16397123 165.49064259 -212.0625 162.625 C-204.19042188 157.17509976 -188.18256724 160.17239078 -179.23608398 161.62646484 C-174.60892291 162.46956852 -170.02037714 163.44354955 -165.4375 164.5 C-164.57012207 164.69835449 -163.70274414 164.89670898 -162.80908203 165.10107422 C-137.77622289 171.04147519 -114.01012997 182.77048906 -94.4375 199.5 C-93.3159073 200.42675409 -92.19344992 201.35246232 -91.0703125 202.27734375 C-78.98459642 212.31299464 -69.59360413 223.34431974 -60.546875 236.1328125 C-57.98264595 239.7574018 -55.33191933 243.29350487 -52.625 246.8125 C-44.45189176 257.66531586 -38.0131647 269.64249352 -31.4375 281.5 C-31.4375 258.20031685 -54.55847085 227.59564891 -69.9921875 211.90234375 C-70.79914063 211.10957031 -71.60609375 210.31679688 -72.4375 209.5 C-74.93960405 206.84047881 -77.39221231 204.14572221 -79.82421875 201.421875 C-81.44215835 199.61287826 -83.08613582 197.82637486 -84.76953125 196.078125 C-91.98103449 188.14673439 -95.39181805 178.94192653 -99.36425781 169.11425781 C-107.04761032 150.39875766 -117.49724597 133.50923992 -128.85351562 116.83105469 C-130.47964541 114.43797713 -132.09203589 112.03603639 -133.703125 109.6328125 C-139.18712927 101.49402764 -144.70935105 93.50122071 -151.09985352 86.03808594 C-153.9458691 82.6037036 -155.2784902 79.99043677 -155.4375 75.5 C-153.10132107 72.29856961 -151.22899736 71.25971951 -147.4375 70.5 C-125.72035575 68.29147686 -98.94981096 83.81486661 -82.66796875 96.92480469 C-56.81604587 118.05124879 -42.69506953 144.90527889 -28.74853516 174.71337891 C-27.47760205 177.4147626 -26.18643909 180.10533457 -24.88671875 182.79296875 C-20.97809322 190.8957385 -17.19636423 198.9147232 -14.4375 207.5 C-17.83456556 189.03768716 -23.46217103 171.73713171 -30.68457031 154.42211914 C-34.28602433 145.72473645 -36.97827385 137.74007652 -36.8125 128.25 C-36.80234863 127.3643335 -36.79219727 126.47866699 -36.78173828 125.56616211 C-36.357946 106.27704311 -28.58133044 4.15728443 0 0 Z M-29.4375 284.5 C-28.4375 286.5 -28.4375 286.5 -28.4375 286.5 Z M-42.4375 339.5 C-37.60867694 345.84645316 -31.70615791 350.37143137 -25.34375 355.08496094 C-23.31516397 356.59081194 -21.29743653 358.11040498 -19.28125 359.6328125 C-14.29850999 363.39607865 -14.29850999 363.39607865 -9.28613281 367.11962891 C-8.03244539 368.05575525 -6.79759426 369.01754607 -5.58105469 370.00146484 C-2.19424755 372.78662764 -2.19424755 372.78662764 1.98413086 373.33081055 C4.89872466 372.39166059 6.73858334 371.16787316 9.15234375 369.2890625 C10.01287354 368.62616211 10.87340332 367.96326172 11.76000977 367.28027344 C12.66420654 366.5690332 13.56840332 365.85779297 14.5 365.125 C15.43062256 364.40344727 16.36124512 363.68189453 17.32006836 362.93847656 C20.07377004 360.80016838 22.81819009 358.65033878 25.5625 356.5 C27.0122227 355.37657346 28.46266126 354.25406962 29.9140625 353.1328125 C31.15153603 352.17251171 32.3885542 351.21162369 33.625 350.25 C34.17728271 349.82154785 34.72956543 349.3930957 35.29858398 348.95166016 C38.24595611 346.63556915 41.06526023 344.30265758 43.5625 341.5 C43.5625 340.84 43.5625 340.18 43.5625 339.5 C17.55404901 329.91793911 -16.77570757 327.65348471 -42.4375 339.5 Z M61.55078125 356.0703125 C60.80159424 356.63041016 60.05240723 357.19050781 59.28051758 357.76757812 C58.48669678 358.38052734 57.69287598 358.99347656 56.875 359.625 C56.04572998 360.25083984 55.21645996 360.87667969 54.36206055 361.52148438 C51.75066693 363.49973053 49.15460798 365.49656519 46.5625 367.5 C45.73234375 368.1403418 44.9021875 368.78068359 44.046875 369.44042969 C39.5477598 372.91685588 35.06221854 376.40978449 30.60009766 379.93359375 C29.18971152 381.0178302 27.75495151 382.07081414 26.30224609 383.09765625 C25.57730957 383.61199219 24.85237305 384.12632812 24.10546875 384.65625 C23.44957764 385.10806641 22.79368652 385.55988281 22.11791992 386.02539062 C20.26887565 387.77836934 19.94209676 389.01681838 19.5625 391.5 C26.28132434 397.8619637 33.1432194 403.85551029 40.47558594 409.50195312 C44.09871964 412.30631091 47.55536465 415.21566748 50.9375 418.3125 C55.34168333 422.32414639 55.34168333 422.32414639 59.875 426.1875 C60.76638672 426.93580078 60.76638672 426.93580078 61.67578125 427.69921875 C63.59264249 428.72756809 63.59264249 428.72756809 65.87890625 427.9921875 C69.38955683 426.04012269 72.20016521 423.60460108 75.1875 420.9375 C76.43792357 419.84274575 77.68923455 418.74900432 78.94140625 417.65625 C79.5564502 417.11742187 80.17149414 416.57859375 80.80517578 416.0234375 C83.20427638 413.94363926 85.65855736 411.93673104 88.125 409.9375 C92.26798735 406.56287083 96.39850877 403.17490914 100.5 399.75 C101.04406494 399.30197021 101.58812988 398.85394043 102.14868164 398.39233398 C105.3743852 395.68555889 108.04462647 392.87334382 110.5625 389.5 C100.5753617 376.22298085 89.28017406 365.7716295 75.5625 356.5 C74.69496094 355.90316406 73.82742188 355.30632812 72.93359375 354.69140625 C68.50030813 352.46380804 65.4016432 353.1470097 61.55078125 356.0703125 Z M-77.9375 358.8125 C-78.54770996 359.26254395 -79.15791992 359.71258789 -79.78662109 360.17626953 C-88.77318892 366.88664195 -97.23409812 374.16015657 -105.3125 381.9375 C-106.10841553 382.68169189 -106.10841553 382.68169189 -106.92041016 383.44091797 C-109.65614951 386.0585638 -109.65614951 386.0585638 -110.5546875 389.59375 C-109.0049154 392.23811638 -107.11321317 393.68712927 -104.6875 395.5625 C-103.68847656 396.35011719 -102.68945312 397.13773437 -101.66015625 397.94921875 C-101.1305127 398.36478027 -100.60086914 398.7803418 -100.05517578 399.20849609 C-97.35514211 401.36412213 -94.74672756 403.62540666 -92.125 405.875 C-82.8496668 413.77636444 -73.23096039 421.25283931 -63.4375 428.5 C-59.33526135 426.21425079 -55.84503888 423.44025495 -52.3125 420.375 C-51.15824549 419.38460797 -50.00328639 418.39503655 -48.84765625 417.40625 C-47.98744873 416.66955078 -47.98744873 416.66955078 -47.10986328 415.91796875 C-44.68804787 413.86455212 -42.21968322 411.87041973 -39.75 409.875 C-35.23877332 406.20797948 -30.90845256 402.37939296 -26.62890625 398.4453125 C-24.63432072 396.67471786 -22.59621705 395.06371759 -20.4375 393.5 C-21.11771925 386.92839033 -25.63785386 384.0897297 -30.48828125 380.07177734 C-48.20422073 364.21591581 -48.20422073 364.21591581 -68.91015625 354.0078125 C-72.52966971 354.71269456 -75.05476888 356.6353155 -77.9375 358.8125 Z M-3.53125 409.32421875 C-4.68209835 410.25998054 -5.81666806 411.21598684 -6.9375 412.1875 C-7.55061035 412.6942627 -8.1637207 413.20102539 -8.79541016 413.72314453 C-10.69175083 415.29782372 -12.56578743 416.89617194 -14.4375 418.5 C-15.51739711 419.41114333 -16.59808584 420.32134952 -17.6796875 421.23046875 C-19.24756844 422.55161 -20.81289471 423.87533717 -22.37182617 425.20703125 C-29.28110573 431.10789529 -36.3686546 436.792293 -43.4375 442.5 C-42.60278247 446.95495969 -40.16914031 448.77279326 -36.75 451.5 C-35.56061189 452.47584868 -34.37183045 453.45243714 -33.18359375 454.4296875 C-32.25716064 455.18523926 -32.25716064 455.18523926 -31.31201172 455.95605469 C-28.26908894 458.46236409 -25.29463889 461.0469808 -22.3125 463.625 C-16.43307049 468.68070586 -10.49816091 473.66174358 -4.4375 478.5 C-3.78007812 479.11746094 -3.12265625 479.73492188 -2.4453125 480.37109375 C-0.47181577 481.76515206 -0.47181577 481.76515206 1.87890625 481.0546875 C5.47827984 478.96946088 8.41420193 476.39912564 11.5 473.625 C12.83560328 472.44623579 14.17154885 471.26785931 15.5078125 470.08984375 C16.18231445 469.49155762 16.85681641 468.89327148 17.55175781 468.27685547 C20.6352288 465.55204951 23.75126884 462.86597098 26.875 460.1875 C27.44806885 459.69556152 28.0211377 459.20362305 28.61157227 458.69677734 C33.50324026 454.51517883 38.49646297 450.46878477 43.5625 446.5 C43.16031456 441.5129005 41.0414263 439.62005366 37.375 436.375 C36.84326172 435.90199463 36.31152344 435.42898926 35.76367188 434.94165039 C30.6905421 430.48645846 25.38131274 426.33841786 20.03515625 422.21875 C15.61926425 418.79967614 11.40268878 415.15342301 7.18359375 411.49609375 C2.16703873 407.38884829 2.16703873 407.38884829 -3.53125 409.32421875 Z M-129.4375 408.5 C-131.21681932 410.32234259 -132.64060482 412.0188948 -134.125 414.0625 C-134.55925293 414.64676758 -134.99350586 415.23103516 -135.44091797 415.83300781 C-142.29996463 425.23585638 -147.98789092 435.22406456 -153.0625 445.6875 C-153.41779785 446.40647461 -153.7730957 447.12544922 -154.13916016 447.86621094 C-155.85877631 451.53228251 -156.81161322 453.65109096 -155.4375 457.5 C-150.85779851 463.21850426 -144.81719093 467.76911733 -139.1171875 472.30859375 C-136.01603574 474.84466683 -133.13338666 477.56354847 -130.2890625 480.3828125 C-128.4640135 481.70207005 -128.4640135 481.70207005 -126.09765625 481.49609375 C-122.53538872 480.16220503 -120.03604626 477.94427571 -117.25 475.4375 C-116.09347481 474.42590811 -114.93591358 473.41549953 -113.77734375 472.40625 C-112.9263208 471.65988281 -112.9263208 471.65988281 -112.05810547 470.8984375 C-109.86491499 469.00591037 -107.59551681 467.22007953 -105.3125 465.4375 C-100.68459621 461.7728022 -96.34209036 457.84044681 -92 453.84375 C-88.8741579 450.98474808 -85.67373156 448.23281776 -82.4375 445.5 C-84.0233138 441.11814609 -87.46380644 438.63065736 -90.9375 435.75 C-91.57260498 435.21560303 -92.20770996 434.68120605 -92.86206055 434.13061523 C-94.71349646 432.57834927 -96.57327722 431.03687258 -98.4375 429.5 C-99.27925781 428.80519531 -100.12101562 428.11039063 -100.98828125 427.39453125 C-103.44970652 425.40073427 -105.94042823 423.44901761 -108.4375 421.5 C-109.10281738 420.97132324 -109.76813477 420.44264648 -110.45361328 419.89794922 C-112.73223676 418.08867345 -115.0214012 416.29344308 -117.3125 414.5 C-118.05089111 413.910979 -118.78928223 413.32195801 -119.55004883 412.71508789 C-120.25282959 412.16973389 -120.95561035 411.62437988 -121.6796875 411.0625 C-122.3072998 410.56878906 -122.93491211 410.07507813 -123.58154297 409.56640625 C-125.65878873 408.16786594 -125.65878873 408.16786594 -129.4375 408.5 Z M121.0625 412.4375 C120.26573853 413.04875732 120.26573853 413.04875732 119.45288086 413.67236328 C107.14008102 423.17524874 95.34935865 433.3578193 83.5625 443.5 C85.568566 447.21281422 87.50972487 449.53430171 90.875 452.0625 C95.19820766 455.40258755 99.37059596 458.8640531 103.5 462.4375 C109.43935835 467.56044892 115.4318394 472.60586247 121.5625 477.5 C122.21992187 478.07621094 122.87734375 478.65242188 123.5546875 479.24609375 C126.15299903 480.86877469 127.54741046 480.98766612 130.5625 480.5 C132.75932318 479.05266705 132.75932318 479.05266705 134.75 477 C137.96624934 473.97105303 141.21730538 471.11101341 144.6875 468.375 C145.51121094 467.715 146.33492187 467.055 147.18359375 466.375 C148.69711653 465.18207564 150.22946127 464.01237981 151.78515625 462.875 C152.43355469 462.38 153.08195312 461.885 153.75 461.375 C154.32105469 460.95992187 154.89210938 460.54484375 155.48046875 460.1171875 C156.81554423 458.46037717 156.81554423 458.46037717 156.484375 455.875 C155.30114411 451.54317167 153.5701178 447.66372413 151.625 443.625 C151.22748535 442.79436035 150.8299707 441.9637207 150.42041016 441.10791016 C145.06287389 430.15263619 138.47357397 417.00924835 129.5625 408.5 C125.5395108 408.5 124.23255125 409.99739476 121.0625 412.4375 Z M-69.58984375 465.140625 C-70.35965576 465.71103516 -71.12946777 466.28144531 -71.92260742 466.86914062 C-73.13654175 467.80016602 -73.13654175 467.80016602 -74.375 468.75 C-75.21458252 469.38099609 -76.05416504 470.01199219 -76.91918945 470.66210938 C-83.31433223 475.51674521 -89.44338914 480.62933591 -95.45703125 485.9453125 C-98.54374652 488.59106845 -101.71949685 490.89520308 -105.1796875 493.0234375 C-106.68022101 494.54680101 -106.68022101 494.54680101 -107.02734375 497.30078125 C-106.19749837 501.80173072 -103.56872163 503.62852727 -100.125 506.3125 C-99.485625 506.83457031 -98.84625 507.35664062 -98.1875 507.89453125 C-96.28297889 509.4455185 -94.36165359 510.97348773 -92.4375 512.5 C-90.60217655 513.99756433 -88.76863625 515.49731868 -86.9375 517 C-85.63232422 518.051875 -85.63232422 518.051875 -84.30078125 519.125 C-82.10885937 520.94312893 -79.97580412 522.78879269 -77.85546875 524.6875 C-77.23671875 525.23599609 -76.61796875 525.78449219 -75.98046875 526.34960938 C-74.77228869 527.42425375 -73.57254422 528.50848228 -72.3828125 529.60351562 C-69.79753621 531.89187504 -67.6852616 533.40031086 -64.45703125 534.69921875 C-59.8548878 534.39558445 -57.68453536 531.90536328 -54.4375 528.8125 C-53.10735143 527.60222617 -51.7766087 526.39260507 -50.4453125 525.18359375 C-49.77661133 524.56597168 -49.10791016 523.94834961 -48.41894531 523.31201172 C-45.44551944 520.5928438 -42.38271875 517.98369108 -39.3125 515.375 C-38.1717496 514.39858398 -37.03112426 513.42202185 -35.890625 512.4453125 C-30.42343968 507.77659926 -24.93197684 503.13653527 -19.4375 498.5 C-19.773683 495.61011917 -20.35584195 494.57869717 -22.484375 492.52734375 C-23.37640625 491.83769531 -24.2684375 491.14804687 -25.1875 490.4375 C-26.18910156 489.64859375 -27.19070313 488.8596875 -28.22265625 488.046875 C-29.01760498 487.42329102 -29.01760498 487.42329102 -29.82861328 486.78710938 C-31.94730033 485.09215973 -33.99603466 483.32318083 -36.04785156 481.54833984 C-41.5467536 476.80362159 -47.18369265 472.24433535 -52.9375 467.8125 C-53.9433313 467.01815552 -53.9433313 467.01815552 -54.96948242 466.20776367 C-55.60861572 465.72283447 -56.24774902 465.23790527 -56.90625 464.73828125 C-57.46763672 464.30555908 -58.02902344 463.87283691 -58.60742188 463.42700195 C-62.87546631 461.2650803 -65.96334321 462.4227884 -69.58984375 465.140625 Z M54.4375 466.9375 C53.86837891 467.3919751 53.29925781 467.8464502 52.71289062 468.31469727 C50.98643253 469.69831774 49.27390845 471.09783369 47.5625 472.5 C46.15871094 473.62921875 46.15871094 473.62921875 44.7265625 474.78125 C39.64183721 478.89674613 34.63024602 483.10092291 29.625 487.3125 C29.08101562 487.76874756 28.53703125 488.22499512 27.9765625 488.69506836 C25.03810791 491.17965629 22.23816132 493.7340754 19.5625 496.5 C21.13824216 500.78278639 24.40063801 503.18519083 27.8125 506 C29.08611518 507.07010106 30.35954757 508.14041972 31.6328125 509.2109375 C32.28540039 509.75588867 32.93798828 510.30083984 33.61035156 510.86230469 C36.07267769 512.92799799 38.50880467 515.02293651 40.94262695 517.12207031 C42.67689503 518.61586551 44.4178178 520.10156842 46.16015625 521.5859375 C48.43767738 523.52805017 50.6918222 525.49333102 52.93359375 527.4765625 C53.99719099 528.40127732 55.06098395 529.3257671 56.125 530.25 C57.05441406 531.06984375 57.98382812 531.8896875 58.94140625 532.734375 C61.39706188 534.60525071 61.39706188 534.60525071 63.98828125 535.10546875 C67.88046382 534.19000851 70.32338085 531.7019203 73.1875 529.0625 C74.43916603 527.9481641 75.69177939 526.83489142 76.9453125 525.72265625 C77.86812012 524.89531982 77.86812012 524.89531982 78.80957031 524.05126953 C81.1703437 521.96208372 83.60785027 519.97755905 86.0625 518 C90.47280518 514.41785943 94.81074956 510.75916858 99.125 507.0625 C99.7334375 506.54171875 100.341875 506.0209375 100.96875 505.484375 C103.2286614 503.54218357 105.45463534 501.60786466 107.5625 499.5 C107.39547508 496.40750829 106.89922682 494.88428277 104.84765625 492.54296875 C104.11417969 491.93066406 103.38070312 491.31835938 102.625 490.6875 C101.80128906 489.99398438 100.97757813 489.30046875 100.12890625 488.5859375 C99.28199219 487.89757812 98.43507813 487.20921875 97.5625 486.5 C96.46228516 485.59121094 96.46228516 485.59121094 95.33984375 484.6640625 C89.89235618 480.23505889 84.31384027 475.96878978 78.75 471.6875 C78.02039063 471.12393799 77.29078125 470.56037598 76.5390625 469.97973633 C70.38421739 464.91787894 70.38421739 464.91787894 63.1328125 462.03515625 C59.51210055 462.68996586 57.20272711 464.65435746 54.4375 466.9375 Z M-160.4375 481.5 C-163.55631758 487.84771108 -164.84280119 494.33554281 -166.1875 501.25 C-166.53748047 502.95349609 -166.53748047 502.95349609 -166.89453125 504.69140625 C-167.10980469 505.77808594 -167.32507813 506.86476563 -167.546875 507.984375 C-167.74249023 508.97147461 -167.93810547 509.95857422 -168.13964844 510.97558594 C-168.63322816 513.62150196 -168.63322816 513.62150196 -167.4375 516.5 C-162.85825764 515.0632102 -159.88809575 512.45412752 -156.5 509.1875 C-155.49218474 508.23170101 -154.48307164 507.27726862 -153.47265625 506.32421875 C-152.97910645 505.85806152 -152.48555664 505.3919043 -151.97705078 504.91162109 C-149.54104595 502.67803721 -146.99511855 500.592597 -144.4375 498.5 C-144.70603647 494.96531064 -145.24467351 493.69187032 -147.80078125 491.1484375 C-148.77402344 490.39820313 -149.74726563 489.64796875 -150.75 488.875 C-151.71550781 488.11960937 -152.68101562 487.36421875 -153.67578125 486.5859375 C-157.0515178 484.03614341 -157.0515178 484.03614341 -160.4375 481.5 Z M157.87109375 486.265625 C156.92363281 487.08546875 155.97617187 487.9053125 155 488.75 C153.57494141 489.96429687 153.57494141 489.96429687 152.12109375 491.203125 C151.27675781 491.96109375 150.43242188 492.7190625 149.5625 493.5 C148.93472656 494.01046875 148.30695313 494.5209375 147.66015625 495.046875 C146.36881688 496.45207265 146.36881688 496.45207265 146.56640625 498.421875 C147.97480233 501.36017585 149.93737743 502.75165757 152.5 504.75 C153.48613281 505.52730469 154.47226562 506.30460937 155.48828125 507.10546875 C156.50277344 507.89566406 157.51726562 508.68585938 158.5625 509.5 C160.43860537 511.01946954 162.31369115 512.5401993 164.1875 514.0625 C166.59860926 516.37911517 166.59860926 516.37911517 169.5625 517.5 C169.2068896 506.44051671 167.17399265 496.21319311 164.5625 485.5 C161.11850072 484.32547187 161.11850072 484.32547187 157.87109375 486.265625 Z M-143.69946289 527.23071289 C-147.39906609 530.65865667 -151.27147507 533.73617753 -155.3125 536.75 C-160.01044437 540.29606114 -164.16897779 543.55052351 -167.4375 548.5 C-168.06290961 551.91254424 -168.06290961 551.91254424 -167.4375 555.5 C-165.68104743 557.67640719 -164.24720885 559.147921 -162.125 560.875 C-161.58246582 561.34341309 -161.03993164 561.81182617 -160.48095703 562.29443359 C-158.81790451 563.71970005 -157.13280974 565.11333768 -155.4375 566.5 C-154.48230469 567.28890625 -153.52710938 568.0778125 -152.54296875 568.890625 C-150.73610808 570.36920054 -148.92236885 571.83941362 -147.1015625 573.30078125 C-144.37411408 575.55232592 -141.78220872 577.90984676 -139.1875 580.3125 C-135.43395143 583.70318571 -132.13528772 586.56561682 -127.4375 588.5 C-122.6205981 587.29577453 -119.37251288 584.15082703 -115.75 580.9375 C-115.13205566 580.39810791 -114.51411133 579.85871582 -113.87744141 579.30297852 C-112.05714955 577.70969165 -110.24577703 576.10689955 -108.4375 574.5 C-107.54160156 573.7059375 -106.64570313 572.911875 -105.72265625 572.09375 C-103.28133488 569.90961808 -100.85642298 567.70890796 -98.4375 565.5 C-97.92880371 565.0364209 -97.42010742 564.5728418 -96.89599609 564.09521484 C-95.26279696 562.60645161 -93.63103153 561.11613751 -92 559.625 C-91.49130371 559.1602124 -90.98260742 558.6954248 -90.45849609 558.21655273 C-89.11323399 556.98305712 -87.7750444 555.7418601 -86.4375 554.5 C-85.80714844 553.98179687 -85.17679687 553.46359375 -84.52734375 552.9296875 C-83.23680296 551.54424787 -83.23680296 551.54424787 -83.4765625 549.57421875 C-84.77027949 546.7816833 -86.48711898 545.32611858 -88.8125 543.3125 C-90.17761719 542.12527344 -90.17761719 542.12527344 -91.5703125 540.9140625 C-95.1587852 537.89270538 -98.78292829 534.91940417 -102.4296875 531.96875 C-106.53622142 528.59819229 -110.55955119 525.13438902 -114.57910156 521.66088867 C-116.19364292 520.26805595 -117.81508449 518.88364298 -119.4375 517.5 C-120.33726562 516.72269531 -121.23703125 515.94539062 -122.1640625 515.14453125 C-129.33832553 509.95490112 -138.61478859 522.46131631 -143.69946289 527.23071289 Z M-7.9375 519.9375 C-9.21139776 521.05434635 -10.48614488 522.17022461 -11.76171875 523.28515625 C-12.38997559 523.83703613 -13.01823242 524.38891602 -13.66552734 524.95751953 C-16.83054834 527.7126315 -20.09497544 530.34291549 -23.3515625 532.98828125 C-27.45663229 536.32949628 -31.54048916 539.69620516 -35.625 543.0625 C-36.39303955 543.69526855 -37.1610791 544.32803711 -37.95239258 544.97998047 C-39.78089649 546.48649021 -41.60926528 547.9931636 -43.4375 549.5 C-42.13370125 552.4018522 -40.78454861 554.3745766 -38.453125 556.53125 C-37.85467773 557.08852783 -37.25623047 557.64580566 -36.63964844 558.2199707 C-35.99543945 558.80738037 -35.35123047 559.39479004 -34.6875 560 C-34.02008789 560.61512451 -33.35267578 561.23024902 -32.66503906 561.86401367 C-26.59078126 567.42921946 -20.38364286 572.82746142 -14.06884766 578.1171875 C-12.45670039 579.48372478 -10.87315794 580.87796625 -9.29296875 582.28125 C-8.33003906 583.1165625 -7.36710937 583.951875 -6.375 584.8125 C-5.53839844 585.55113281 -4.70179688 586.28976562 -3.83984375 587.05078125 C-1.57447623 588.67375708 -1.57447623 588.67375708 0.87109375 588.625 C5.0301212 586.8865386 8.15286865 584.09561371 11.5625 581.1875 C12.31217041 580.55956543 13.06184082 579.93163086 13.83422852 579.28466797 C19.0514854 574.88061263 24.1127354 570.32776275 29.07324219 565.63745117 C33.0796495 561.86660223 37.29924975 558.48071308 41.734375 555.21875 C43.7563365 553.31776055 44.20558189 552.21257763 44.5625 549.5 C38.58510747 543.92201849 32.42684387 538.74433688 25.96630859 533.74462891 C21.19003914 530.03436366 16.56325752 526.17344519 12.00073242 522.20361328 C3.8091942 515.14345882 0.48471917 512.39356083 -7.9375 519.9375 Z M120.5 519.4375 C119.332753 520.45785749 118.16477337 521.47737744 116.99609375 522.49609375 C116.12573486 523.26155518 116.12573486 523.26155518 115.23779297 524.04248047 C112.89083205 526.08435699 110.48074455 528.04338803 108.0625 530 C102.85284298 534.24095066 97.72423527 538.57221608 92.60546875 542.921875 C89.60442774 545.46447714 86.58747047 547.98597372 83.5625 550.5 C83.92977477 555.04772583 87.2379674 557.35409435 90.4375 560.1875 C91.02249268 560.71641846 91.60748535 561.24533691 92.21020508 561.7902832 C96.66514011 565.78638226 101.26059682 569.59249745 105.9296875 573.3359375 C108.66059462 575.5806297 111.26904731 577.92435828 113.875 580.3125 C118.870485 584.89922757 118.870485 584.89922757 124.5625 588.5 C128.7004214 588.13750441 131.15632994 586.65604383 134.4375 584.1875 C135.87802734 583.1046875 135.87802734 583.1046875 137.34765625 582 C141.53006415 578.76772465 145.66922342 575.47983545 149.77148438 572.14648438 C152.9948684 569.52892533 156.24166049 566.97729682 159.59765625 564.53125 C160.2424292 564.05276611 160.88720215 563.57428223 161.55151367 563.08129883 C162.77544613 562.1767771 164.01085714 561.2875102 165.2590332 560.41674805 C168.23743846 558.19045214 169.5320845 556.5818233 170.8359375 553.07421875 C170.50021334 548.68582437 169.40741659 547.56315577 166.23266602 544.72070312 C165.28218384 543.93083008 165.28218384 543.93083008 164.3125 543.125 C163.66788818 542.55974609 163.02327637 541.99449219 162.35913086 541.41210938 C160.44761433 539.7483163 158.51209496 538.11890156 156.5625 536.5 C155.14904297 535.32050781 155.14904297 535.32050781 153.70703125 534.1171875 C151.98153643 532.70233396 150.24572003 531.299978 148.5 529.91015625 C146.17620658 528.00353319 143.92636762 526.06170512 141.6875 524.05859375 C141.01517334 523.46046875 140.34284668 522.86234375 139.65014648 522.24609375 C138.32214466 521.06009766 137.00104963 519.86631217 135.68774414 518.6640625 C135.08051514 518.12394531 134.47328613 517.58382812 133.84765625 517.02734375 C133.04146851 516.29632446 133.04146851 516.29632446 132.21899414 515.55053711 C127.27300717 512.41382644 124.02538419 516.26298344 120.5 519.4375 Z M-70.625 573.125 C-71.22868408 573.61282959 -71.83236816 574.10065918 -72.4543457 574.60327148 C-73.76369955 575.66463535 -75.06913458 576.73084762 -76.37109375 577.80126953 C-78.48951983 579.54276394 -80.61893204 581.27010087 -82.75 582.99609375 C-86.34728784 585.91941665 -89.91735066 588.8732664 -93.46923828 591.8515625 C-94.7343756 592.91112678 -96.00328823 593.9662083 -97.27685547 595.015625 C-98.88745193 596.34764911 -100.47752617 597.70017164 -102.0625 599.0625 C-102.94164062 599.80628906 -103.82078125 600.55007813 -104.7265625 601.31640625 C-106.64378215 603.35541529 -106.64378215 603.35541529 -106.65234375 605.8984375 C-104.80329501 609.85813674 -101.79538241 611.9378053 -98.375 614.5625 C-97.6627124 615.12469238 -96.9504248 615.68688477 -96.21655273 616.26611328 C-89.89908557 621.22384462 -83.47732424 626.04870699 -77.015625 630.81640625 C-73.32353674 633.55254196 -69.79272608 636.46457844 -66.33203125 639.48828125 C-64.4513824 640.68909966 -64.4513824 640.68909966 -62.09765625 640.46484375 C-58.56459923 639.18339722 -55.93259739 637.10555757 -53.0625 634.75 C-52.45817139 634.2648291 -51.85384277 633.7796582 -51.23120117 633.27978516 C-46.00503627 629.04860036 -40.91172372 624.66154836 -35.86743164 620.21582031 C-32.98422459 617.67814196 -30.09213363 615.19365624 -27.046875 612.8515625 C-26.04140625 612.07554687 -25.0359375 611.29953125 -24 610.5 C-23.11441406 609.84 -22.22882813 609.18 -21.31640625 608.5 C-19.27402704 606.63479011 -19.27402704 606.63479011 -18.7578125 604.078125 C-19.79066006 600.16042734 -22.59999641 598.50696134 -25.75 596.25 C-27.04896161 595.27708823 -28.34713076 594.30311758 -29.64453125 593.328125 C-30.29115723 592.84923828 -30.9377832 592.37035156 -31.60400391 591.87695312 C-34.11228058 589.99324068 -36.52532611 588.00473645 -38.9375 586 C-43.84148603 581.9584139 -48.8273345 578.02938186 -53.84375 574.12890625 C-56.14785625 572.33159888 -58.36890956 570.56859044 -60.4375 568.5 C-65.28319806 568.5 -67.08042566 570.19053671 -70.625 573.125 Z M56.3125 573.1875 C55.70623779 573.67718262 55.09997559 574.16686523 54.4753418 574.67138672 C53.17389572 575.72467782 51.8760744 576.78246034 50.58154297 577.84423828 C48.55251548 579.50818803 46.5140426 581.15983777 44.47265625 582.80859375 C41.76090919 585.00030181 39.0572447 587.2013934 36.359375 589.41015625 C33.97293705 591.36132815 31.57055971 593.28690264 29.140625 595.18359375 C28.14546875 595.96863281 27.1503125 596.75367188 26.125 597.5625 C25.26003906 598.23410156 24.39507813 598.90570312 23.50390625 599.59765625 C21.45209773 601.60818089 20.90677082 602.68949824 20.5625 605.5 C26.02078382 610.54926514 31.6998649 615.22144863 37.61962891 619.71411133 C41.18512806 622.42473986 44.67485582 625.20480482 48.125 628.0625 C53.79264691 632.74374229 59.64962922 637.13500115 65.5625 641.5 C69.88629201 638.6869305 74.0128926 635.6974856 78.0625 632.5 C78.66271973 632.02723633 79.26293945 631.55447266 79.88134766 631.06738281 C86.60276784 625.73292235 93.09644458 620.13919411 99.5625 614.5 C100.4390625 613.736875 101.315625 612.97375 102.21875 612.1875 C104.0035415 610.62894968 105.78543625 609.06734815 107.5625 607.5 C106.6757296 598.87692231 97.47852388 593.15717655 91.1875 588 C89.82238281 586.90945313 89.82238281 586.90945313 88.4296875 585.796875 C85.87872378 583.75332368 83.37059615 581.67112661 80.87255859 579.56396484 C69.38410294 568.51453071 69.38410294 568.51453071 56.3125 573.1875 Z M-168.4375 585.5 C-168.90025945 597.63458122 -167.37978977 609.73084092 -164.4375 621.5 C-160.22993909 621.5 -159.14079228 619.66978591 -156.125 616.8125 C-152.32023401 613.24847833 -148.48766433 609.78391702 -144.4375 606.5 C-145.21333555 600.45664944 -151.06609451 597.18086753 -155.4375 593.5 C-156.81421875 592.33017578 -156.81421875 592.33017578 -158.21875 591.13671875 C-162.75484395 586.89522168 -162.75484395 586.89522168 -168.4375 585.5 Z M145.5625 603.5 C146.40360419 608.16691245 149.24336229 610.26852374 152.75 613.1875 C153.59788086 613.93483398 153.59788086 613.93483398 154.46289062 614.69726562 C158.07775549 617.74899003 160.68743871 619.1819004 165.5625 619.5 C166.21131448 616.95906145 166.85662899 614.41731727 167.5 611.875 C167.68240234 611.16214844 167.86480469 610.44929687 168.05273438 609.71484375 C169.58276282 603.65036736 170.70168919 597.91351385 170.625 591.625 C170.61597656 590.65820312 170.60695313 589.69140625 170.59765625 588.6953125 C170.58605469 587.97085938 170.57445312 587.24640625 170.5625 586.5 C162.56250966 586.5 151.69371115 598.59851968 145.5625 603.5 Z M-148.0625 635.6875 C-148.86888916 636.29352051 -149.67527832 636.89954102 -150.50610352 637.52392578 C-151.25947998 638.10770996 -152.01285645 638.69149414 -152.7890625 639.29296875 C-153.46791504 639.8139917 -154.14676758 640.33501465 -154.84619141 640.87182617 C-156.76126153 642.83126199 -157.25664995 643.76657182 -157.4375 646.5 C-156.67657012 649.31161102 -156.67657012 649.31161102 -155.375 652.3046875 C-154.91125977 653.43914307 -154.44751953 654.57359863 -153.96972656 655.74243164 C-153.21127441 657.54055298 -153.21127441 657.54055298 -152.4375 659.375 C-151.92392134 660.60854589 -151.4105754 661.84218869 -150.89746094 663.07592773 C-143.78272255 683.26272543 -143.78272255 683.26272543 -130.4375 698.5 C-122.41584176 694.51702386 -115.90664184 688.57707263 -109.4375 682.5 C-104.61746003 678.18325737 -99.68558856 673.99595274 -94.75 669.8125 C-94.20303467 669.34859863 -93.65606934 668.88469727 -93.0925293 668.40673828 C-90.64959079 666.34189572 -88.23921069 664.36297525 -85.60546875 662.54296875 C-83.23166323 660.60201538 -83.23166323 660.60201538 -82.3046875 657.546875 C-82.1303451 654.35584128 -82.1303451 654.35584128 -84.5078125 652.078125 C-85.51585937 651.30984375 -86.52390625 650.5415625 -87.5625 649.75 C-88.37859741 649.11384766 -88.37859741 649.11384766 -89.21118164 648.46484375 C-90.93941119 647.12398879 -92.68767516 645.81249052 -94.4375 644.5 C-95.51877367 643.6638408 -96.59824586 642.82534613 -97.67578125 641.984375 C-100.35585844 639.89832499 -103.05325737 637.83622214 -105.75683594 635.78076172 C-108.68018652 633.55300211 -111.58900595 631.30636543 -114.5 629.0625 C-116.47757431 627.53959667 -118.45652102 626.01847193 -120.4375 624.5 C-121.15808594 623.91089844 -121.87867188 623.32179688 -122.62109375 622.71484375 C-129.45486812 618.14429788 -142.68719959 631.58732524 -148.0625 635.6875 Z M119.3125 626.6875 C113.96223892 631.47814353 108.47854506 635.98068298 102.75 640.3125 C102.0290918 640.86123779 101.30818359 641.40997559 100.56542969 641.9753418 C97.57138824 644.24850593 94.56646694 646.497133 91.51953125 648.69921875 C90.70871094 649.29347656 89.89789062 649.88773438 89.0625 650.5 C88.3921875 650.974375 87.721875 651.44875 87.03125 651.9375 C85.02941732 654.06710923 84.80501622 655.61028456 84.5625 658.5 C85.70180293 660.40572562 85.70180293 660.40572562 87.578125 661.953125 C88.24666504 662.56752441 88.91520508 663.18192383 89.60400391 663.81494141 C90.33280762 664.45351074 91.06161133 665.09208008 91.8125 665.75 C92.55032715 666.41821777 93.2881543 667.08643555 94.04833984 667.77490234 C98.82633181 672.06978508 103.73495134 676.18077081 108.76953125 680.171875 C112.89741834 683.61274312 116.76915608 687.32343954 120.61767578 691.07275391 C124.03095237 694.33155671 127.17008096 696.59949797 131.5625 698.5 C141.7725826 688.53384429 148.58943538 674.98477918 154.6875 662.25 C155.06567871 661.46455811 155.44385742 660.67911621 155.83349609 659.86987305 C157.72559835 655.79379701 159.32312568 652.05495126 159.5625 647.5 C157.94902804 645.52219566 156.4791872 644.13764682 154.5625 642.5 C153.34832364 641.25567479 152.14052247 640.0051121 150.9375 638.75 C146.13418522 633.93757078 140.87878867 629.72760175 135.5625 625.5 C134.73105469 624.75234375 133.89960937 624.0046875 133.04296875 623.234375 C130.71336605 621.37866307 130.71336605 621.37866307 128.140625 620.92578125 C124.35009502 621.77003565 122.07477768 624.11289975 119.3125 626.6875 Z M-7.6875 626.1875 C-8.45815796 626.78220093 -8.45815796 626.78220093 -9.24438477 627.38891602 C-14.36910179 631.37329062 -19.3977371 635.48422678 -24.40722656 639.61206055 C-27.66353705 642.28812005 -30.93743663 644.90086512 -34.34765625 647.37890625 C-34.95424072 647.82371338 -35.5608252 648.26852051 -36.18579102 648.72680664 C-37.83342823 649.92435759 -39.49443191 651.10345659 -41.15625 652.28125 C-43.6238019 654.28581064 -43.6238019 654.28581064 -44.04296875 657.0234375 C-43.2290489 660.35263224 -41.87020099 661.43386213 -39.25 663.625 C-38.33089844 664.40617188 -37.41179687 665.18734375 -36.46484375 665.9921875 C-35.46582031 666.81976562 -34.46679688 667.64734375 -33.4375 668.5 C-31.92317341 669.79912242 -30.40885725 671.09825716 -28.89501953 672.39794922 C-21.39601211 678.80484571 -13.76681463 685.07489599 -6.03857422 691.203125 C-4.74457018 692.25127221 -3.50504659 693.36645398 -2.28515625 694.5 C-0.41526036 695.77150474 -0.41526036 695.77150474 1.9921875 694.97265625 C4.97297158 693.26482099 7.20077347 691.30916904 9.6875 688.9375 C13.38816351 685.47990957 17.11196914 682.17514014 21.0625 679 C25.88653477 675.10631479 30.47294632 671.00425596 35.03515625 666.80859375 C38.15039598 663.96298837 41.33912843 661.22195822 44.5625 658.5 C44.0632054 654.44112033 43.2270023 652.69487273 40.06640625 650.11328125 C39.34211426 649.51725098 38.61782227 648.9212207 37.87158203 648.30712891 C34.12284538 645.37330054 30.34518072 642.49403311 26.5 639.6875 C25.26914673 638.78717041 25.26914673 638.78717041 24.01342773 637.86865234 C18.76502184 634.05190708 13.48669772 630.28116081 8.125 626.625 C7.51712646 626.2024292 6.90925293 625.7798584 6.28295898 625.34448242 C0.48010477 621.45968157 -2.34778455 622.03355935 -7.6875 626.1875 Z M58.6875 677.3125 C57.70652344 678.1375 56.72554687 678.9625 55.71484375 679.8125 C54.93923096 680.47378906 54.93923096 680.47378906 54.14794922 681.1484375 C52.58485429 682.48094343 51.01434905 683.80414082 49.44140625 685.125 C43.02916635 690.51886016 36.66510573 695.96911413 30.3190918 701.44067383 C29.770354 701.9127124 29.22161621 702.38475098 28.65625 702.87109375 C27.87314453 703.54567627 27.87314453 703.54567627 27.07421875 704.23388672 C25.65808683 705.41994294 24.18969571 706.54280326 22.71875 707.66015625 C20.31096031 709.39392392 20.31096031 709.39392392 19.5625 712.5 C24.59884471 717.12120133 29.67958573 721.64437033 35 725.9375 C38.77273129 728.98531659 42.38414954 732.13685516 45.9375 735.4375 C49.98244263 739.12314974 54.06972565 742.73221492 58.3125 746.1875 C58.83118652 746.63407959 59.34987305 747.08065918 59.88427734 747.54077148 C62.76635483 749.82931856 64.33949252 750.50149837 68.05078125 750.4765625 C84.80630878 745.81707209 100.25559093 731.28542987 112.5625 719.5 C111.1287906 714.97511368 108.59470177 711.99414168 105.375 708.625 C104.87742187 708.09543701 104.37984375 707.56587402 103.8671875 707.02026367 C102.4394351 705.50652164 101.00183427 704.00271779 99.5625 702.5 C98.62470703 701.50033203 98.62470703 701.50033203 97.66796875 700.48046875 C93.58130098 696.23470929 89.06859646 692.59964378 84.48046875 688.91015625 C80.5118208 685.63216993 76.74626002 682.16534435 72.97265625 678.6640625 C67.21671237 673.49584061 64.99935802 671.96521375 58.6875 677.3125 Z M-70.75 678.75 C-71.636875 679.4821875 -72.52375 680.214375 -73.4375 680.96875 C-74.4275 681.8040625 -75.4175 682.639375 -76.4375 683.5 C-76.97375 683.94988281 -77.51 684.39976562 -78.0625 684.86328125 C-85.1217691 690.7950282 -92.00674549 696.8789463 -98.72680664 703.19238281 C-103.08405655 707.25708701 -107.65126358 710.94633984 -112.390625 714.5625 C-114.53528223 716.59255723 -115.10240291 717.61300971 -115.4375 720.5 C-101.17157805 733.04570683 -82.14799588 745.43831668 -63.15625 748.91796875 C-58.87106132 748.25918256 -56.29857922 745.63619197 -53.0625 742.875 C-52.36568115 742.29540527 -51.6688623 741.71581055 -50.95092773 741.11865234 C-45.32495829 736.38626772 -39.94371451 731.40701044 -34.62304688 726.33618164 C-30.61048686 722.52608529 -26.4962393 719.03981684 -21.9765625 715.83203125 C-20.14626053 714.47692243 -20.14626053 714.47692243 -19.4375 711.5 C-24.66853409 706.74008389 -30.14605844 702.33041468 -35.72119141 697.98461914 C-40.50330814 694.25061152 -45.23119713 690.45406025 -49.9375 686.625 C-50.59556641 686.08987793 -51.25363281 685.55475586 -51.93164062 685.00341797 C-52.56263672 684.48924316 -53.19363281 683.97506836 -53.84375 683.4453125 C-54.44960938 682.95321289 -55.05546875 682.46111328 -55.6796875 681.95410156 C-56.84572673 680.989528 -57.99719283 680.00704473 -59.1328125 679.00683594 C-63.96933546 674.76892204 -65.8687954 674.71377704 -70.75 678.75 Z M-23.4375 744.5 C-24.75234375 745.59248047 -24.75234375 745.59248047 -26.09375 746.70703125 C-27.31578125 747.74923828 -27.31578125 747.74923828 -28.5625 748.8125 C-29.64917969 749.73482422 -29.64917969 749.73482422 -30.7578125 750.67578125 C-32.60303119 752.67977457 -32.89108163 753.8911731 -33.4375 756.5 C-11.75147601 760.29326492 10.88284166 763.23899807 32.5625 757.5 C30.9841692 753.49846721 28.36425215 751.26822796 25.1875 748.4375 C24.10387553 747.46647063 23.02055104 746.49510641 21.9375 745.5234375 C21.380625 745.02682617 20.82375 744.53021484 20.25 744.01855469 C18.58700124 742.52204828 16.94658168 741.00454786 15.3125 739.4765625 C14.78833496 738.98808838 14.26416992 738.49961426 13.72412109 737.99633789 C12.265587 736.63536383 10.80853255 735.27280455 9.3515625 733.91015625 C-3.82446202 722.52415187 -12.1056321 734.95123484 -23.4375 744.5 Z " fill="#000000" transform="translate(511.4375,110.5)"/>
</svg>
